<?xml version="1.0" encoding="UTF-8"?>
<svg version="1.1" xmlns="http://www.w3.org/2000/svg" width="100" height="100">
<path d="M0 0 C22.77 0 45.54 0 69 0 C69 33 69 66 69 100 C46.23 100 23.46 100 0 100 C0 67 0 34 0 0 Z " fill="#1B1A16" transform="translate(15,0)"/>
<path d="M0 0 C8.25 0 16.5 0 25 0 C24.67 0.66 24.34 1.32 24 2 C16.74 2 9.48 2 2 2 C1.67 11.24 1.34 20.48 1 30 C1.66 30 2.32 30 3 30 C2.93039063 28.78183594 2.86078125 27.56367188 2.7890625 26.30859375 C2.19525633 11.65327512 2.19525633 11.65327512 5.5625 7.375 C8.18227407 5.05391751 9.06078655 4.99493445 12.75 4.6875 C13.8225 4.790625 14.895 4.89375 16 5 C16.66 4.34 17.32 3.68 18 3 C18.99 3 19.98 3 21 3 C21 3.99 21 4.98 21 6 C21.66 6 22.32 6 23 6 C23.309375 5.0409375 23.309375 5.0409375 23.625 4.0625 C25 2 25 2 28 1.125 C29.485 1.063125 29.485 1.063125 31 1 C31.66 1.66 32.32 2.32 33 3 C33.33 2.67 33.66 2.34 34 2 C40.6 2.6 40.6 2.6 43 5 C43.33 4.34 43.66 3.68 44 3 C44.99 3 45.98 3 47 3 C47 3.99 47 4.98 47 6 C47.94875 5.505 48.8975 5.01 49.875 4.5 C53 3 53 3 55 3 C55 3.99 55 4.98 55 6 C55.61875 6.268125 56.2375 6.53625 56.875 6.8125 C59 8 59 8 61 11 C61.16015625 13.6640625 61.16015625 13.6640625 61.0625 16.625 C61.00844179 18.41597213 60.97957378 20.20832865 61 22 C61.33 22.33 61.66 22.66 62 23 C62.45459858 25.65463121 62.70243238 28.32189138 63 31 C63.33 31 63.66 31 64 31 C64 45.19 64 59.38 64 74 C63.01 73.01 63.01 73.01 62 72 C61.61866701 73.9914056 61.28674418 75.99279077 61 78 C61.33 78.33 61.66 78.66 62 79 C61.78441546 83.31169077 61.46739434 86.12129865 59.4375 89.9375 C55.94495808 92.89272778 53.54363569 92.85343111 49 93 C48.01 92.505 48.01 92.505 47 92 C47 92.99 47 93.98 47 95 C46.01 95 45.02 95 44 95 C44 93.68 44 92.36 44 91 C43.34 91 42.68 91 42 91 C41.79375 91.639375 41.5875 92.27875 41.375 92.9375 C40 95 40 95 37.0625 95.9375 C34 96 34 96 32.125 94.5625 C31.568125 93.7890625 31.568125 93.7890625 31 93 C31.99 92.505 31.99 92.505 33 92 C33 86.06 33 80.12 33 74 C35.97 73.01 35.97 73.01 39 72 C39.33 70.02 39.66 68.04 40 66 C39.071875 65.814375 39.071875 65.814375 38.125 65.625 C36 65 36 65 34 63 C30.90073181 63.32198966 30.90073181 63.32198966 28 64 C27.505 61.525 27.505 61.525 27 59 C28.11375 59.20625 29.2275 59.4125 30.375 59.625 C32.169375 59.810625 32.169375 59.810625 34 60 C36.33278733 58.10892859 36.33278733 58.10892859 36.1875 54.9375 C36.33187793 52.11166864 36.33187793 52.11166864 35 51 C32.54190002 50.7499227 32.54190002 50.7499227 30 51 C27.64046906 53.35953094 27.50858587 54.77895617 27 58 C26.01 56.68 25.02 55.36 24 54 C25.32 52.02 26.64 50.04 28 48 C27.34 47.67 26.68 47.34 26 47 C26.66 46.34 27.32 45.68 28 45 C28.4125 45.495 28.825 45.99 29.25 46.5 C31.12202338 48.43386092 31.12202338 48.43386092 35 48 C34.835 46.9275 34.67 45.855 34.5 44.75 C33.7056524 38.79239302 34.00526336 34.25457031 37.1875 29.0625 C39 28 39 28 42.4375 28.0625 C46.27791159 29.07313463 47.75106622 29.76153536 50 33 C50.25 35.75 50.25 35.75 50 38 C49.34 38 48.68 38 48 38 C47.6596875 36.7934375 47.6596875 36.7934375 47.3125 35.5625 C46.879375 34.716875 46.44625 33.87125 46 33 C43.45224694 32.10613836 43.45224694 32.10613836 41 32 C40.67 32.99 40.34 33.98 40 35 C39.01 34.505 39.01 34.505 38 34 C37.67 36.31 37.34 38.62 37 41 C39.64 41.33 42.28 41.66 45 42 C45.33 42.99 45.66 43.98 46 45 C44.68 45 43.36 45 42 45 C42 45.66 42 46.32 42 47 C43.0828125 47.1546875 43.0828125 47.1546875 44.1875 47.3125 C47.24491993 48.05986932 49.38329635 49.28045189 52 51 C52.8353125 50.01 52.8353125 50.01 53.6875 49 C56 47 56 47 58.75 46.75 C59.4925 46.8325 60.235 46.915 61 47 C61 46.34 61 45.68 61 45 C60.236875 44.9175 59.47375 44.835 58.6875 44.75 C56 44 56 44 54.1875 42.4375 C52.75084362 39.48857374 53.02751173 37.17389212 53.12890625 33.953125 C52.90812363 30.60793382 51.40773955 29.22715908 49 27 C44.29798538 23.57825708 44.29798538 23.57825708 38.9375 21.484375 C37 21 37 21 34 19 C32.8125 16.375 32.8125 16.375 32 14 C31.59007813 14.69867188 31.18015625 15.39734375 30.7578125 16.1171875 C30.21898438 17.02726562 29.68015625 17.93734375 29.125 18.875 C28.59132813 19.77992187 28.05765625 20.68484375 27.5078125 21.6171875 C26 24 26 24 24 26 C26.46068038 30.68248071 26.46068038 30.68248071 29.75 34.75 C31 36 31 36 31 39 C29.515 39.495 29.515 39.495 28 40 C27.67 39.01 27.34 38.02 27 37 C26.34 37 25.68 37 25 37 C24.67 35.68 24.34 34.36 24 33 C22.35 33 20.7 33 19 33 C18.01 35.475 18.01 35.475 17 38 C16.34 38 15.68 38 15 38 C14.67 38.66 14.34 39.32 14 40 C14 39.01 14 38.02 14 37 C13.34 37 12.68 37 12 37 C11.87625 37.61875 11.7525 38.2375 11.625 38.875 C11 41 11 41 9 43 C8.61713197 46.73296326 8.85084215 47.77626323 11 51 C10.75 54.625 10.75 54.625 10 58 C9.01 58.495 9.01 58.495 8 59 C7.85304688 58.07767578 7.85304688 58.07767578 7.703125 57.13671875 C7.55359375 56.32847656 7.4040625 55.52023438 7.25 54.6875 C7.11078125 53.88699219 6.9715625 53.08648437 6.828125 52.26171875 C6.03461993 49.45832813 6.03461993 49.45832813 2 47 C1.67 50.3 1.34 53.6 1 57 C0.67 57 0.34 57 0 57 C0 38.19 0 19.38 0 0 Z " fill="#1B1A16" transform="translate(17,1)"/>
<path d="M0 0 C1.76462683 3.08809695 2 4.23312136 2 8 C2.721875 8.28875 3.44375 8.5775 4.1875 8.875 C5.115625 9.24625 6.04375 9.6175 7 10 C7.763125 10.2475 8.52625 10.495 9.3125 10.75 C14.12833757 12.98992445 18.73337164 15.88895274 21.5 20.5 C22 23 22 23 21.9375 26.0625 C22.01057104 29.4968391 22.55036099 30.6378481 25 33 C27.09415804 33.79623822 27.09415804 33.79623822 29 34 C29 34.66 29 35.32 29 36 C27.35 36 25.7 36 24 36 C23.34 37.32 22.68 38.64 22 40 C21.34 40 20.68 40 20 40 C19.67 41.32 19.34 42.64 19 44 C19 42.68 19 41.36 19 40 C16.06279492 38.47700477 13.0831351 37.19899698 10 36 C10 35.34 10 34.68 10 34 C11.32 34 12.64 34 14 34 C13.20700294 31.82961523 13.20700294 31.82961523 11.15234375 31.3671875 C10.42144531 31.20476563 9.69054688 31.04234375 8.9375 30.875 C8.20402344 30.70742188 7.47054687 30.53984375 6.71484375 30.3671875 C6.14894531 30.24601562 5.58304688 30.12484375 5 30 C5.25561323 27.6568787 5.59270772 25.32156597 6 23 C6.66 22.67 7.32 22.34 8 22 C8.33 21.34 8.66 20.68 9 20 C13.75 20.75 13.75 20.75 16 23 C16 24.32 16 25.64 16 27 C16.66 27 17.32 27 18 27 C17.16607751 23.87279065 16.45564406 21.52314688 14.3125 19.0625 C10.98740103 17.53475182 8.5026847 18.25904747 5 19 C4.7834375 20.11375 4.7834375 20.11375 4.5625 21.25 C4 24 4 24 3.375 26 C2.85542528 28.07538137 2.85542528 28.07538137 3.5 30.4375 C4.05526792 33.2832481 3.71590751 35.21591523 3 38 C-1.75 38.125 -1.75 38.125 -4 37 C-4.309375 37.61875 -4.61875 38.2375 -4.9375 38.875 C-5.625 40.25 -6.3125 41.625 -7 43 C-6.67 43.66 -6.34 44.32 -6 45 C-5.525625 44.195625 -5.05125 43.39125 -4.5625 42.5625 C-3 40 -3 40 -2 39 C0.4375 38.8125 0.4375 38.8125 3 39 C5 41 5 41 5.3125 43.9375 C5 47 5 47 3.8125 48.9375 C2 50 2 50 -0.5625 49.75 C-3 49 -3 49 -5 48 C-4.34 49.32 -3.68 50.64 -3 52 C-2.236875 51.773125 -1.47375 51.54625 -0.6875 51.3125 C0.6428125 51.1578125 0.6428125 51.1578125 2 51 C3.625 52.375 3.625 52.375 5 54 C6.485 54.495 6.485 54.495 8 55 C7.67 56.98 7.34 58.96 7 61 C5.02 61.66 3.04 62.32 1 63 C1 67.95 1 72.9 1 78 C-1 76 -1 76 -1.01953125 73.28515625 C-0.88164397 71.13879767 -0.73582393 68.99293382 -0.58203125 66.84765625 C-0.71996094 65.90792969 -0.85789062 64.96820313 -1 64 C-3.4131692 62.27599689 -3.4131692 62.27599689 -6 61 C-6.63938553 58.54082489 -7 56.53361875 -7 54 C-9.64 54.66 -12.28 55.32 -15 56 C-14.835 55.0925 -14.67 54.185 -14.5 53.25 C-13.91582349 49.45285268 -13.77766636 46.66700093 -15 43 C-16.49985609 41.33289654 -16.49985609 41.33289654 -18 40 C-18 41.32 -18 42.64 -18 44 C-18.66 44 -19.32 44 -20 44 C-20.28875 43.21625 -20.5775 42.4325 -20.875 41.625 C-21.84912254 38.90328368 -21.84912254 38.90328368 -24 37 C-24.3125 34.5625 -24.3125 34.5625 -24 32 C-22.5625 30.375 -22.5625 30.375 -21 29 C-20.67 28.01 -20.34 27.02 -20 26 C-18.35 26.33 -16.7 26.66 -15 27 C-14.67 25.35 -14.34 23.7 -14 22 C-11 21 -11 21 -8 22 C-7.3125 24.0625 -7.3125 24.0625 -7 26 C-6.34 26 -5.68 26 -5 26 C-4.34 26.66 -3.68 27.32 -3 28 C-2.34 28 -1.68 28 -1 28 C-1.495 25.525 -1.495 25.525 -2 23 C-2.99 22.67 -3.98 22.34 -5 22 C-5.70381157 20.01276732 -6.3711811 18.01222047 -7 16 C-7.66 15.67 -8.32 15.34 -9 15 C-8.60167969 14.50371094 -8.20335937 14.00742187 -7.79296875 13.49609375 C-4.40115025 9.14697367 -1.93684016 5.1649071 0 0 Z " fill="#29271F" transform="translate(49,12)"/>
<path d="M0 0 C22.77 0 45.54 0 69 0 C69 33 69 66 69 100 C46.23 100 23.46 100 0 100 C0 67 0 34 0 0 Z M2 1 C2 33.34 2 65.68 2 99 C10.91 99 19.82 99 29 99 C27.02 96.69 25.04 94.38 23 92 C23.66 92 24.32 92 25 92 C25.20625 92.639375 25.4125 93.27875 25.625 93.9375 C26.89538209 96.34925077 26.89538209 96.34925077 30.125 96.75 C31.07375 96.8325 32.0225 96.915 33 97 C33 97.66 33 98.32 33 99 C44.22 99 55.44 99 67 99 C67 66.66 67 34.32 67 1 C58.75 1 50.5 1 42 1 C42 1.33 42 1.66 42 2 C47.36489595 2.90483637 52.50317457 3.12303662 57.9375 3.0625 C58.71673828 3.05798828 59.49597656 3.05347656 60.29882812 3.04882812 C62.19925268 3.03716908 64.09963706 3.01923877 66 3 C65.67 3.66 65.34 4.32 65 5 C64.84932786 6.4465242 64.75138964 7.8987934 64.68359375 9.3515625 C64.62075195 10.62773437 64.62075195 10.62773437 64.55664062 11.9296875 C64.51732422 12.81914062 64.47800781 13.70859375 64.4375 14.625 C64.37272461 15.97078125 64.37272461 15.97078125 64.30664062 17.34375 C64.20043139 19.56234283 64.09838806 21.7810488 64 24 C63.02363211 21.07089632 62.99826544 19.62206629 63.1875 16.625 C63.23976055 13.06547587 63.06968963 12.11382639 61.125 8.9375 C59.23296126 6.77541538 59.23296126 6.77541538 57 7 C57 6.01 57 5.02 57 4 C52.92035719 5.30155006 52.92035719 5.30155006 49 7 C49 6.01 49 5.02 49 4 C48.01 4 47.02 4 46 4 C45.67 4.66 45.34 5.32 45 6 C44.443125 5.505 43.88625 5.01 43.3125 4.5 C40.58890332 2.7333427 39.18548267 2.66468603 36 3 C35.34 3.33 34.68 3.66 34 4 C33.67 3.34 33.34 2.68 33 2 C29.51190809 2.77030122 29.51190809 2.77030122 26 4 C25.67 4.99 25.34 5.98 25 7 C24.34 7 23.68 7 23 7 C23 6.01 23 5.02 23 4 C20.24358584 4.49756092 20.24358584 4.49756092 18 6 C16.948125 5.87625 15.89625 5.7525 14.8125 5.625 C10.65125253 6.01887096 10.65125253 6.01887096 7.5625 8.375 C2.81685539 14.40461211 4.58831497 23.79551196 5 31 C4.34 31 3.68 31 3 31 C3.33 21.76 3.66 12.52 4 3 C11.26 3 18.52 3 26 3 C26.33 2.34 26.66 1.68 27 1 C18.75 1 10.5 1 2 1 Z " fill="#7D6B55" transform="translate(15,0)"/>
<path d="M0 0 C3.84041159 1.01063463 5.31356622 1.69903536 7.5625 4.9375 C7.8125 7.6875 7.8125 7.6875 7.5625 9.9375 C6.9025 9.9375 6.2425 9.9375 5.5625 9.9375 C5.2221875 8.7309375 5.2221875 8.7309375 4.875 7.5 C4.441875 6.654375 4.00875 5.80875 3.5625 4.9375 C1.01474694 4.04363836 1.01474694 4.04363836 -1.4375 3.9375 C-1.7675 4.9275 -2.0975 5.9175 -2.4375 6.9375 C-3.0975 6.6075 -3.7575 6.2775 -4.4375 5.9375 C-4.7675 8.2475 -5.0975 10.5575 -5.4375 12.9375 C-2.7975 13.2675 -0.1575 13.5975 2.5625 13.9375 C2.8925 14.9275 3.2225 15.9175 3.5625 16.9375 C2.2425 16.9375 0.9225 16.9375 -0.4375 16.9375 C-0.4375 17.5975 -0.4375 18.2575 -0.4375 18.9375 C0.284375 19.040625 1.00625 19.14375 1.75 19.25 C4.80741993 19.99736932 6.94579635 21.21795189 9.5625 22.9375 C11.2125 21.6175 12.8625 20.2975 14.5625 18.9375 C16.63057326 25.14171978 16.04241876 29.50657521 13.1875 35.25 C11.752343 37.92308482 10.24772103 40.40966846 8.5625 42.9375 C7.9025 42.9375 7.2425 42.9375 6.5625 42.9375 C6.5625 43.5975 6.5625 44.2575 6.5625 44.9375 C-3.81107631 50.49330866 -3.81107631 50.49330866 -9.4375 50.9375 C-9.4375 49.2875 -9.4375 47.6375 -9.4375 45.9375 C-7.4575 45.2775 -5.4775 44.6175 -3.4375 43.9375 C-2.9425 40.9675 -2.9425 40.9675 -2.4375 37.9375 C-3.365625 37.751875 -3.365625 37.751875 -4.3125 37.5625 C-6.4375 36.9375 -6.4375 36.9375 -8.4375 34.9375 C-11.53676819 35.25948966 -11.53676819 35.25948966 -14.4375 35.9375 C-14.7675 34.2875 -15.0975 32.6375 -15.4375 30.9375 C-14.32375 31.14375 -13.21 31.35 -12.0625 31.5625 C-10.86625 31.68625 -9.67 31.81 -8.4375 31.9375 C-6.10471267 30.04642859 -6.10471267 30.04642859 -6.25 26.875 C-6.10562207 24.04916864 -6.10562207 24.04916864 -7.4375 22.9375 C-9.89559998 22.6874227 -9.89559998 22.6874227 -12.4375 22.9375 C-14.79703094 25.29703094 -14.92891413 26.71645617 -15.4375 29.9375 C-16.4275 28.6175 -17.4175 27.2975 -18.4375 25.9375 C-17.1175 23.9575 -15.7975 21.9775 -14.4375 19.9375 C-15.0975 19.6075 -15.7575 19.2775 -16.4375 18.9375 C-15.7775 18.2775 -15.1175 17.6175 -14.4375 16.9375 C-14.025 17.4325 -13.6125 17.9275 -13.1875 18.4375 C-11.31547662 20.37136092 -11.31547662 20.37136092 -7.4375 19.9375 C-7.6025 18.865 -7.7675 17.7925 -7.9375 16.6875 C-8.7318476 10.72989302 -8.43223664 6.19207031 -5.25 1 C-3.4375 -0.0625 -3.4375 -0.0625 0 0 Z " fill="#24211A" transform="translate(59.4375,29.0625)"/>
<path d="M0 0 C8.25 0 16.5 0 25 0 C25 32.34 25 64.68 25 98 C13.78 98 2.56 98 -9 98 C-8.67 96.68 -8.34 95.36 -8 94 C-7.34 94 -6.68 94 -6 94 C-6 94.66 -6 95.32 -6 96 C-1.18877153 94.47444034 -1.18877153 94.47444034 2 91 C2.66 91 3.32 91 4 91 C4 92.32 4 93.64 4 95 C4.99 95 5.98 95 7 95 C7 94.01 7 93.02 7 92 C8.01320313 92.01353516 8.01320313 92.01353516 9.046875 92.02734375 C14.2301979 91.99981766 14.2301979 91.99981766 18.5546875 89.55078125 C20.60977691 86.09313082 21.55197751 82.97423808 21 79 C20.67 78.01 20.34 77.02 20 76 C20.33984375 73.51953125 20.33984375 73.51953125 20.9375 70.8125 C21.13214844 69.91144531 21.32679687 69.01039062 21.52734375 68.08203125 C21.68332031 67.39496094 21.83929688 66.70789063 22 66 C22.33 66 22.66 66 23 66 C23.02468447 61.19450253 23.04285255 56.38904182 23.05493164 51.58349609 C23.05996621 49.94807289 23.06679427 48.3126542 23.07543945 46.67724609 C23.08754335 44.32909025 23.093237 41.98099381 23.09765625 39.6328125 C23.10281754 38.89942657 23.10797882 38.16604065 23.11329651 37.41043091 C23.183156 33.57877344 23.183156 33.57877344 22 30 C21.97178745 28.06249364 22.0118923 26.1237965 22.0859375 24.1875 C22.12976563 23.02992187 22.17359375 21.87234375 22.21875 20.6796875 C22.2703125 19.46539063 22.321875 18.25109375 22.375 17 C22.41882813 15.78570312 22.46265625 14.57140625 22.5078125 13.3203125 C22.87112212 4.25775575 22.87112212 4.25775575 24 2 C22.85402344 2.01160156 21.70804688 2.02320313 20.52734375 2.03515625 C18.99739748 2.04454242 17.46744942 2.05364173 15.9375 2.0625 C15.18533203 2.07087891 14.43316406 2.07925781 13.65820312 2.08789062 C8.99366882 2.10808341 4.60076827 1.77595959 0 1 C0 0.67 0 0.34 0 0 Z " fill="#322C24" transform="translate(57,1)"/>
<path d="M0 0 C5.71065632 1.7845801 11.39100574 5.3183429 14.5 10.5 C15 13 15 13 14.9375 16.0625 C15.01057104 19.4968391 15.55036099 20.6378481 18 23 C20.09415804 23.79623822 20.09415804 23.79623822 22 24 C22 24.66 22 25.32 22 26 C20.35 26 18.7 26 17 26 C16.34 27.32 15.68 28.64 15 30 C14.34 30 13.68 30 13 30 C12.67 31.32 12.34 32.64 12 34 C12 32.68 12 31.36 12 30 C9.06279492 28.47700477 6.0831351 27.19899698 3 26 C3 25.34 3 24.68 3 24 C4.32 24 5.64 24 7 24 C6.20700294 21.82961523 6.20700294 21.82961523 4.15234375 21.3671875 C3.42144531 21.20476563 2.69054688 21.04234375 1.9375 20.875 C1.20402344 20.70742188 0.47054687 20.53984375 -0.28515625 20.3671875 C-0.85105469 20.24601562 -1.41695312 20.12484375 -2 20 C-1.74438677 17.6568787 -1.40729228 15.32156597 -1 13 C-0.34 12.67 0.32 12.34 1 12 C1.33 11.34 1.66 10.68 2 10 C6.75 10.75 6.75 10.75 9 13 C9 14.32 9 15.64 9 17 C9.66 17 10.32 17 11 17 C9.83224828 12.62093103 8.95309766 10.32535157 5 8 C4.29875 7.71125 3.5975 7.4225 2.875 7.125 C0.29109263 5.57465558 -0.11469215 3.80347486 -1 1 C-0.67 0.67 -0.34 0.34 0 0 Z " fill="#2C2720" transform="translate(56,22)"/>
<path d="M0 0 C3.84041159 1.01063463 5.31356622 1.69903536 7.5625 4.9375 C7.8125 7.6875 7.8125 7.6875 7.5625 9.9375 C6.9025 9.9375 6.2425 9.9375 5.5625 9.9375 C5.2221875 8.7309375 5.2221875 8.7309375 4.875 7.5 C4.441875 6.654375 4.00875 5.80875 3.5625 4.9375 C1.01474694 4.04363836 1.01474694 4.04363836 -1.4375 3.9375 C-1.7675 4.9275 -2.0975 5.9175 -2.4375 6.9375 C-3.0975 6.6075 -3.7575 6.2775 -4.4375 5.9375 C-4.7675 8.2475 -5.0975 10.5575 -5.4375 12.9375 C-2.7975 13.2675 -0.1575 13.5975 2.5625 13.9375 C2.8925 14.9275 3.2225 15.9175 3.5625 16.9375 C2.2425 16.9375 0.9225 16.9375 -0.4375 16.9375 C-0.4375 17.5975 -0.4375 18.2575 -0.4375 18.9375 C1.2125 19.2675 2.8625 19.5975 4.5625 19.9375 C3.9025 20.2675 3.2425 20.5975 2.5625 20.9375 C2.8925 22.5875 3.2225 24.2375 3.5625 25.9375 C2.5725 26.2675 1.5825 26.5975 0.5625 26.9375 C-1.0875 25.2875 -2.7375 23.6375 -4.4375 21.9375 C-4.7675 22.9275 -5.0975 23.9175 -5.4375 24.9375 C-6.0975 24.2775 -6.7575 23.6175 -7.4375 22.9375 C-9.9375 22.60416667 -9.9375 22.60416667 -12.4375 22.9375 C-14.79703094 25.29703094 -14.92891413 26.71645617 -15.4375 29.9375 C-16.4275 28.6175 -17.4175 27.2975 -18.4375 25.9375 C-17.1175 23.9575 -15.7975 21.9775 -14.4375 19.9375 C-15.0975 19.6075 -15.7575 19.2775 -16.4375 18.9375 C-15.7775 18.2775 -15.1175 17.6175 -14.4375 16.9375 C-14.025 17.4325 -13.6125 17.9275 -13.1875 18.4375 C-11.31547662 20.37136092 -11.31547662 20.37136092 -7.4375 19.9375 C-7.6025 18.865 -7.7675 17.7925 -7.9375 16.6875 C-8.7318476 10.72989302 -8.43223664 6.19207031 -5.25 1 C-3.4375 -0.0625 -3.4375 -0.0625 0 0 Z " fill="#191813" transform="translate(59.4375,29.0625)"/>
<path d="M0 0 C0.33 0 0.66 0 1 0 C1 18.48 1 36.96 1 56 C-21.44 56 -43.88 56 -67 56 C-67 39.5 -67 23 -67 6 C-66.67 6 -66.34 6 -66 6 C-65.67 21.84 -65.34 37.68 -65 54 C-58.73 54.33 -52.46 54.66 -46 55 C-45.67 54.34 -45.34 53.68 -45 53 C-45 53.66 -45 54.32 -45 55 C-42.03 54.505 -42.03 54.505 -39 54 C-39.825 53.38125 -40.65 52.7625 -41.5 52.125 C-42.7375 51.073125 -42.7375 51.073125 -44 50 C-44 49.34 -44 48.68 -44 48 C-43.34 48 -42.68 48 -42 48 C-41.38125 48.639375 -40.7625 49.27875 -40.125 49.9375 C-37.96479217 52.03417231 -36.91223279 52.58396674 -34 53 C-34 53.66 -34 54.32 -34 55 C-33.360625 54.814375 -32.72125 54.62875 -32.0625 54.4375 C-27.92665389 53.84666484 -24.1148827 54.41728241 -20 55 C-19.505 54.01 -19.505 54.01 -19 53 C-19 53.66 -19 54.32 -19 55 C-12.73 55 -6.46 55 0 55 C0 36.85 0 18.7 0 0 Z " fill="#B5A685" transform="translate(82,44)"/>
<path d="M0 0 C1.65 0.33 3.3 0.66 5 1 C5.33 1.99 5.66 2.98 6 4 C4.0625 6.6875 4.0625 6.6875 2 9 C4.46068038 13.68248071 4.46068038 13.68248071 7.75 17.75 C9 19 9 19 9 22 C8.01 22.33 7.02 22.66 6 23 C5.67 22.01 5.34 21.02 5 20 C4.34 20 3.68 20 3 20 C2.67 18.68 2.34 17.36 2 16 C0.35 16 -1.3 16 -3 16 C-3.99 18.475 -3.99 18.475 -5 21 C-5.66 21 -6.32 21 -7 21 C-7.33 21.66 -7.66 22.32 -8 23 C-8 22.01 -8 21.02 -8 20 C-8.66 20 -9.32 20 -10 20 C-9.74297526 15.6305794 -9.39976667 13.48177009 -6.5625 10.0625 C-4 8 -4 8 -2 8 C-2.33 6.68 -2.66 5.36 -3 4 C-2.01 3.67 -1.02 3.34 0 3 C0 2.01 0 1.02 0 0 Z " fill="#302C23" transform="translate(39,18)"/>
<path d="M0 0 C0.33 0 0.66 0 1 0 C1.33 9.9 1.66 19.8 2 30 C-4.27 30 -10.54 30 -17 30 C-17 30.66 -17 31.32 -17 32 C-21.62 32 -26.24 32 -31 32 C-30.67 30.68 -30.34 29.36 -30 28 C-29.34 28 -28.68 28 -28 28 C-28 28.66 -28 29.32 -28 30 C-23.18877153 28.47444034 -23.18877153 28.47444034 -20 25 C-19.34 25 -18.68 25 -18 25 C-18 26.32 -18 27.64 -18 29 C-17.01 29 -16.02 29 -15 29 C-15 28.01 -15 27.02 -15 26 C-14.32453125 26.00902344 -13.6490625 26.01804687 -12.953125 26.02734375 C-7.7698021 25.99981766 -7.7698021 25.99981766 -3.4453125 23.55078125 C-1.39022309 20.09313082 -0.44802249 16.97423808 -1 13 C-1.33 12.01 -1.66 11.02 -2 10 C-1.66015625 7.51953125 -1.66015625 7.51953125 -1.0625 4.8125 C-0.86785156 3.91144531 -0.67320313 3.01039062 -0.47265625 2.08203125 C-0.31667969 1.39496094 -0.16070312 0.70789063 0 0 Z " fill="#6B7971" transform="translate(79,67)"/>
<path d="M0 0 C2.04119788 1.61594832 4.04072937 3.2856382 6 5 C6 5.66 6 6.32 6 7 C6.66 6.67 7.32 6.34 8 6 C8 4.35 8 2.7 8 1 C9.32 2.32 10.64 3.64 12 5 C11.67 5.495 11.34 5.99 11 6.5 C9.56363642 10.09090894 9.87148538 13.14456127 10 17 C8.20866022 17.05391993 6.41686101 17.09275571 4.625 17.125 C3.62726562 17.14820312 2.62953125 17.17140625 1.6015625 17.1953125 C-1 17 -1 17 -3 15 C-6.09926819 15.32198966 -6.09926819 15.32198966 -9 16 C-9.33 14.35 -9.66 12.7 -10 11 C-8.88625 11.20625 -7.7725 11.4125 -6.625 11.625 C-5.42875 11.74875 -4.2325 11.8725 -3 12 C-0.50494038 9.50494038 -0.64051624 8.32671112 -0.375 4.875 C-0.30023438 3.96492188 -0.22546875 3.05484375 -0.1484375 2.1171875 C-0.09945312 1.41851562 -0.05046875 0.71984375 0 0 Z " fill="#201F17" transform="translate(54,49)"/>
<path d="M0 0 C0.66 0 1.32 0 2 0 C2.55147834 4.80573985 3.08081571 9.47356488 2.8125 14.3125 C2.75718837 17.99161603 2.75718837 17.99161603 4.4375 20.9375 C8.06324829 23.85578521 11.45278544 23.89312103 16 24 C16.33 25.32 16.66 26.64 17 28 C11.39 28 5.78 28 0 28 C0 18.76 0 9.52 0 0 Z " fill="#5E5B4D" transform="translate(18,69)"/>
<path d="M0 0 C1.48831242 0.00667405 2.97660807 0.01863442 4.46484375 0.03515625 C5.22345703 0.03966797 5.98207031 0.04417969 6.76367188 0.04882812 C8.64326246 0.06064945 10.52281274 0.07858547 12.40234375 0.09765625 C12.40234375 0.42765625 12.40234375 0.75765625 12.40234375 1.09765625 C10.42234375 1.09765625 8.44234375 1.09765625 6.40234375 1.09765625 C6.40234375 1.75765625 6.40234375 2.41765625 6.40234375 3.09765625 C7.39234375 3.42765625 8.38234375 3.75765625 9.40234375 4.09765625 C8.32984375 4.32453125 7.25734375 4.55140625 6.15234375 4.78515625 C1.80313325 6.30737993 0.49035837 7.00514759 -1.59765625 11.09765625 C-1.82120347 13.87909951 -1.78127283 16.57161656 -1.671875 19.359375 C-1.58034994 22.73616788 -2.00792569 25.78042183 -2.59765625 29.09765625 C-3.25765625 29.09765625 -3.91765625 29.09765625 -4.59765625 29.09765625 C-4.62231506 25.12834636 -4.64049648 21.15906591 -4.65258789 17.18969727 C-4.65762682 15.83845239 -4.66445802 14.48721299 -4.6730957 13.13598633 C-4.68518044 11.19745191 -4.69035453 9.25887825 -4.6953125 7.3203125 C-4.70054932 6.15250244 -4.70578613 4.98469238 -4.71118164 3.78149414 C-4.53764944 -0.32095643 -4.25393002 0.11547041 0 0 Z " fill="#3D3C3C" transform="translate(22.59765625,1.90234375)"/>
<path d="M0 0 C0.33 0.99 0.66 1.98 1 3 C2.31647119 3.69937532 3.65022151 4.36729133 5 5 C5.33 5.66 5.66 6.32 6 7 C8.02463255 7.65213292 8.02463255 7.65213292 10 8 C10 8.66 10 9.32 10 10 C8.35 10 6.7 10 5 10 C4.34 11.32 3.68 12.64 3 14 C2.34 14 1.68 14 1 14 C0.67 15.32 0.34 16.64 0 18 C0 16.68 0 15.36 0 14 C-1.32 13.34 -2.64 12.68 -4 12 C-4.37096774 6.43548387 -4.37096774 6.43548387 -2.5625 4.3125 C-1.7890625 3.6628125 -1.7890625 3.6628125 -1 3 C-0.67 2.01 -0.34 1.02 0 0 Z " fill="#8E8371" transform="translate(68,38)"/>
<path d="M0 0 C0.33 0.66 0.66 1.32 1 2 C1.66 2 2.32 2 3 2 C3 2.99 3 3.98 3 5 C2.34 5 1.68 5 1 5 C1 14.24 1 23.48 1 33 C10.9 32.505 10.9 32.505 21 32 C21.33 31.34 21.66 30.68 22 30 C24.475 32.475 24.475 32.475 27 35 C18.09 35 9.18 35 0 35 C0 23.45 0 11.9 0 0 Z " fill="#242119" transform="translate(17,64)"/>
<path d="M0 0 C0.78375 0.04125 1.5675 0.0825 2.375 0.125 C3.035 1.775 3.695 3.425 4.375 5.125 C5.035 5.125 5.695 5.125 6.375 5.125 C6.705 4.465 7.035 3.805 7.375 3.125 C7.375 6.125 7.375 6.125 5.9375 7.625 C5.421875 8.12 4.90625 8.615 4.375 9.125 C4.045 10.115 3.715 11.105 3.375 12.125 C-2.375 10.375 -2.375 10.375 -4.625 8.125 C-4.875 5.125 -4.875 5.125 -4.625 2.125 C-2.625 0.125 -2.625 0.125 0 0 Z " fill="#6F6E63" transform="translate(49.625,22.875)"/>
<path d="M0 0 C3 0.25 3 0.25 5 2.25 C5.3125 5.25 5.3125 5.25 5 8.25 C4.01 8.91 3.02 9.57 2 10.25 C1.27617533 12.30925139 1.27617533 12.30925139 1 14.25 C0.34 14.25 -0.32 14.25 -1 14.25 C-1.28875 13.46625 -1.5775 12.6825 -1.875 11.875 C-2.84912254 9.15328368 -2.84912254 9.15328368 -5 7.25 C-5.25 4.75 -5.25 4.75 -5 2.25 C-3 0.25 -3 0.25 0 0 Z " fill="#6E6860" transform="translate(30,41.75)"/>
<path d="M0 0 C1.65 0 3.3 0 5 0 C5.33 0.66 5.66 1.32 6 2 C6.99 2.33 7.98 2.66 9 3 C7.66666667 5.66666667 6.33333333 8.33333333 5 11 C4.34 10.67 3.68 10.34 3 10 C2.731875 10.639375 2.46375 11.27875 2.1875 11.9375 C1 14 1 14 -2 15 C-1.773125 14.236875 -1.54625 13.47375 -1.3125 12.6875 C-1.209375 11.800625 -1.10625 10.91375 -1 10 C-2.37514541 8.2912354 -2.37514541 8.2912354 -4 7 C-4 6.34 -4 5.68 -4 5 C-2.02 4.34 -0.04 3.68 2 3 C1.34 2.01 0.68 1.02 0 0 Z " fill="#2F2C25" transform="translate(36,46)"/>
<path d="M0 0 C2.5 0.25 2.5 0.25 4.5 2.25 C4.83661952 5.4142235 4.99943411 7.43513382 3.3125 10.1875 C1.5 11.25 1.5 11.25 -1.125 11.0625 C-3.5 10.25 -3.5 10.25 -4.5 8.25 C-4.6875 5.25 -4.6875 5.25 -4.5 2.25 C-2.5 0.25 -2.5 0.25 0 0 Z " fill="#747266" transform="translate(49.5,50.75)"/>
<path d="M0 0 C0.61875 0.8353125 0.61875 0.8353125 1.25 1.6875 C2.51049933 3.35315983 3.83129031 4.97379722 5.1875 6.5625 C7 9 7 9 7 12 C6.01 12.33 5.02 12.66 4 13 C3.67 12.01 3.34 11.02 3 10 C2.34 10 1.68 10 1 10 C0.67 8.68 0.34 7.36 0 6 C-1.65 6 -3.3 6 -5 6 C-5.66 7.65 -6.32 9.3 -7 11 C-7.66 11 -8.32 11 -9 11 C-9.33 11.66 -9.66 12.32 -10 13 C-10.37810643 9.69156877 -10.15283119 8.24688115 -8.375 5.375 C-5.77893252 2.77893252 -3.35347805 1.44809279 0 0 Z " fill="#22201A" transform="translate(41,28)"/>
<path d="M0 0 C1.98 0 3.96 0 6 0 C6.33 1.65 6.66 3.3 7 5 C7.99 5 8.98 5 10 5 C11.25541557 8.76624671 10.37061958 10.37188934 9 14 C7.35 13.67 5.7 13.34 4 13 C4 12.34 4 11.68 4 11 C5.32 11 6.64 11 8 11 C7.20700294 8.82961523 7.20700294 8.82961523 5.15234375 8.3671875 C4.42144531 8.20476563 3.69054688 8.04234375 2.9375 7.875 C2.20402344 7.70742188 1.47054687 7.53984375 0.71484375 7.3671875 C0.14894531 7.24601562 -0.41695312 7.12484375 -1 7 C-0.67 4.69 -0.34 2.38 0 0 Z " fill="#32352D" transform="translate(55,35)"/>
<path d="M0 0 C1.76462683 3.08809695 2 4.23312136 2 8 C2.639375 8.20625 3.27875 8.4125 3.9375 8.625 C6 10 6 10 6.75 13.125 C6.87375 14.548125 6.87375 14.548125 7 16 C6.34 16 5.68 16 5 16 C4.34 14.68 3.68 13.36 3 12 C-0.62528568 11.79859524 -2.86501708 12.14223235 -6 14 C-6 14.66 -6 15.32 -6 16 C-6.99 15.67 -7.98 15.34 -9 15 C-8.60167969 14.50371094 -8.20335937 14.00742187 -7.79296875 13.49609375 C-4.40115025 9.14697367 -1.93684016 5.1649071 0 0 Z " fill="#453A29" transform="translate(49,12)"/>
<path d="M0 0 C1.32 0.33 2.64 0.66 4 1 C3.67 2.98 3.34 4.96 3 7 C1.02 7.66 -0.96 8.32 -3 9 C-3 13.95 -3 18.9 -3 24 C-5 22 -5 22 -5.01953125 19.28515625 C-4.88164397 17.13879767 -4.73582393 14.99293382 -4.58203125 12.84765625 C-4.78892578 11.43806641 -4.78892578 11.43806641 -5 10 C-7.41431138 8.28052484 -7.41431138 8.28052484 -10 7 C-10.8125 3.8125 -10.8125 3.8125 -11 1 C-10.01 1.33 -9.02 1.66 -8 2 C-7.67 3.65 -7.34 5.3 -7 7 C-5.35 7 -3.7 7 -2 7 C-1.34 4.69 -0.68 2.38 0 0 Z " fill="#5D5144" transform="translate(53,66)"/>
<path d="M0 0 C0.66 0 1.32 0 2 0 C2 1.32 2 2.64 2 4 C2.99 4 3.98 4 5 4 C5 3.01 5 2.02 5 1 C7.64 1 10.28 1 13 1 C12.67 1.99 12.34 2.98 12 4 C7.545 4.495 7.545 4.495 3 5 C3 5.66 3 6.32 3 7 C-1.62 7 -6.24 7 -11 7 C-10.67 5.68 -10.34 4.36 -10 3 C-9.34 3 -8.68 3 -8 3 C-8 3.66 -8 4.32 -8 5 C-3.18877153 3.47444034 -3.18877153 3.47444034 0 0 Z " fill="#6E6656" transform="translate(59,92)"/>
<path d="M0 0 C1.32 1.32 2.64 2.64 4 4 C3.505 4.7425 3.505 4.7425 3 5.5 C1.56363642 9.09090894 1.87148538 12.14456127 2 16 C1.34 16 0.68 16 0 16 C0 15.34 0 14.68 0 14 C-1.65 13.67 -3.3 13.34 -5 13 C-5.33 11.02 -5.66 9.04 -6 7 C-4.02 6.34 -2.04 5.68 0 5 C0 3.35 0 1.7 0 0 Z " fill="#35342F" transform="translate(62,50)"/>
<path d="M0 0 C1.66611905 -0.042721 3.33382885 -0.04063832 5 0 C6 1 6 1 6.11352539 3.50024414 C6.10828857 4.58426514 6.10305176 5.66828613 6.09765625 6.78515625 C6.09443359 7.95498047 6.09121094 9.12480469 6.08789062 10.33007812 C6.07951172 11.56177734 6.07113281 12.79347656 6.0625 14.0625 C6.05798828 15.29806641 6.05347656 16.53363281 6.04882812 17.80664062 C6.03699608 20.87114117 6.02051173 23.93554721 6 27 C5.67 27 5.34 27 5 27 C4.855625 25.906875 4.71125 24.81375 4.5625 23.6875 C4.11711896 20.06877013 4.11711896 20.06877013 3 17 C2.98088296 15.54164316 3.00529986 14.08236004 3.0625 12.625 C3.11048773 8.92994496 2.67553982 6.35107965 1 3 C0.67 2.01 0.34 1.02 0 0 Z " fill="#505659" transform="translate(74,4)"/>
<path d="M0 0 C12.87 0.495 12.87 0.495 26 1 C26 1.66 26 2.32 26 3 C23.69 2.67 21.38 2.34 19 2 C19.99 3.32 20.98 4.64 22 6 C21.67 6.66 21.34 7.32 21 8 C19 6.6875 19 6.6875 17 5 C17 4.01 17 3.02 17 2 C16.05125 2.495 15.1025 2.99 14.125 3.5 C11 5 11 5 9 5 C9 4.01 9 3.02 9 2 C8.01 2 7.02 2 6 2 C5.67 2.99 5.34 3.98 5 5 C3.35 3.35 1.7 1.7 0 0 Z " fill="#6C655C" transform="translate(55,2)"/>
<path d="M0 0 C3 4 3 4 4.125 6.1875 C7.15729674 9.11872018 10.92569627 8.82916965 15 9 C15.33 10.32 15.66 11.64 16 13 C10.39 13 4.78 13 -1 13 C-0.67 12.34 -0.34 11.68 0 11 C1.65 11.33 3.3 11.66 5 12 C4.360625 10.948125 3.72125 9.89625 3.0625 8.8125 C1.38245548 5.89171588 0.41003948 3.3828257 0 0 Z " fill="#70726A" transform="translate(19,84)"/>
<path d="M0 0 C2.00720923 0.28674418 4.0085944 0.61866701 6 1 C6.125 3.875 6.125 3.875 6 7 C5.34 7.66 4.68 8.32 4 9 C1.375 8.625 1.375 8.625 -1 8 C-1.04241723 5.66705225 -1.04092937 3.33297433 -1 1 C-0.67 0.67 -0.34 0.34 0 0 Z " fill="#1B221F" transform="translate(47,65)"/>
<path d="M0 0 C2.69082872 0.17635452 5.32851446 0.61835921 8 1 C8.33 2.32 8.66 3.64 9 5 C3.58461538 9.06153846 3.58461538 9.06153846 0.625 8.75 C0.08875 8.5025 -0.4475 8.255 -1 8 C-0.34 8 0.32 8 1 8 C1.33 6.02 1.66 4.04 2 2 C1.01 1.67 0.02 1.34 -1 1 C-0.67 0.67 -0.34 0.34 0 0 Z " fill="#1A1A14" transform="translate(55,65)"/>
<path d="M0 0 C0.33 0 0.66 0 1 0 C1.33 1.98 1.66 3.96 2 6 C1.01 6 0.02 6 -1 6 C-1.33 7.32 -1.66 8.64 -2 10 C-3.65 9.67 -5.3 9.34 -7 9 C-6.125 4.25 -6.125 4.25 -5 2 C-3.68 2.33 -2.36 2.66 -1 3 C-0.67 2.01 -0.34 1.02 0 0 Z " fill="#2F3230" transform="translate(44,54)"/>
<path d="M0 0 C0.99 0 1.98 0 3 0 C2.8125 2.875 2.8125 2.875 2 6 C-0.5625 7.375 -0.5625 7.375 -3 8 C-3.66 7.34 -4.32 6.68 -5 6 C-6.98821313 5.60235737 -8.98944339 5.26224651 -11 5 C-11 3.68 -11 2.36 -11 1 C-9.35 1 -7.7 1 -6 1 C-6 1.66 -6 2.32 -6 3 C-5.34 3 -4.68 3 -4 3 C-3.34 3.66 -2.68 4.32 -2 5 C-1.34 5 -0.68 5 0 5 C0 3.35 0 1.7 0 0 Z " fill="#414F4F" transform="translate(48,35)"/>
<path d="M0 0 C0.66 0 1.32 0 2 0 C2.61875 0.639375 3.2375 1.27875 3.875 1.9375 C6.03520783 4.03417231 7.08776721 4.58396674 10 5 C10 5.66 10 6.32 10 7 C10.639375 6.814375 11.27875 6.62875 11.9375 6.4375 C16.07334611 5.84666484 19.8851173 6.41728241 24 7 C24.33 6.34 24.66 5.68 25 5 C25 5.99 25 6.98 25 8 C18.4 8 11.8 8 5 8 C5 7.34 5 6.68 5 6 C4.175 5.34 3.35 4.68 2.5 4 C1.675 3.34 0.85 2.68 0 2 C0 1.34 0 0.68 0 0 Z " fill="#997F61" transform="translate(38,92)"/>
<path d="M0 0 C0.99 0 1.98 0 3 0 C3 0.66 3 1.32 3 2 C3.680625 2.556875 4.36125 3.11375 5.0625 3.6875 C7 6 7 6 6.875 9.6875 C6.441875 11.3271875 6.441875 11.3271875 6 13 C5.01 13.495 5.01 13.495 4 14 C3.87882812 13.37351562 3.75765625 12.74703125 3.6328125 12.1015625 C3.46523438 11.28429688 3.29765625 10.46703125 3.125 9.625 C2.96257813 8.81289063 2.80015625 8.00078125 2.6328125 7.1640625 C2.13341068 4.81326077 2.13341068 4.81326077 0 3 C0 2.01 0 1.02 0 0 Z " fill="#24231F" transform="translate(21,46)"/>
<path d="M0 0 C0.66 0 1.32 0 2 0 C2.66 1.98 3.32 3.96 4 6 C5.65 6.33 7.3 6.66 9 7 C10.0730756 10.2192268 9.79946725 10.90206442 9 14 C9.33 14.66 9.66 15.32 10 16 C9.01 15.67 8.02 15.34 7 15 C7.33 13.02 7.66 11.04 8 9 C7.01 9 6.02 9 5 9 C4.67 9.66 4.34 10.32 4 11 C4 10.34 4 9.68 4 9 C3.01 8.67 2.02 8.34 1 8 C-0.25 5.0625 -0.25 5.0625 -1 2 C-0.67 1.34 -0.34 0.68 0 0 Z " fill="#3F372E" transform="translate(43,26)"/>
<path d="M0 0 C2.01920337 1.30406884 4.01924973 2.63823419 6 4 C6 4.33 6 4.66 6 5 C-2.91 5 -11.82 5 -21 5 C-21 4.67 -21 4.34 -21 4 C-15.06 4 -9.12 4 -3 4 C-3 3.34 -3 2.68 -3 2 C-2.01 2 -1.02 2 0 2 C0 1.34 0 0.68 0 0 Z " fill="#4E4434" transform="translate(38,94)"/>
<path d="M0 0 C1.67542976 0.28604898 3.34385343 0.61781233 5 1 C5 2.98 5 4.96 5 7 C1.25 8.125 1.25 8.125 -1 7 C-1.04254356 5.00045254 -1.04080783 2.99958364 -1 1 C-0.67 0.67 -0.34 0.34 0 0 Z " fill="#2F6273" transform="translate(28,43)"/>
<path d="M0 0 C1.65 0.33 3.3 0.66 5 1 C5 1.66 5 2.32 5 3 C3.68 3 2.36 3 1 3 C1 4.32 1 5.64 1 7 C2.98 7 4.96 7 7 7 C7.33 7.66 7.66 8.32 8 9 C4.59068103 10.13643966 3.99664544 9.86747764 0.8125 8.5625 C0.09707031 8.27503906 -0.61835937 7.98757812 -1.35546875 7.69140625 C-2.16951172 7.34916016 -2.16951172 7.34916016 -3 7 C-2.01 4.69 -1.02 2.38 0 0 Z " fill="#282E2A" transform="translate(36,33)"/>
<path d="M0 0 C1.2065625 0.0309375 1.2065625 0.0309375 2.4375 0.0625 C1.0475869 2.84232621 -0.74908353 2.93713341 -3.5625 4.0625 C-3.8925 4.7225 -4.2225 5.3825 -4.5625 6.0625 C-5.2225 6.0625 -5.8825 6.0625 -6.5625 6.0625 C-6.5625 5.0725 -6.5625 4.0825 -6.5625 3.0625 C-9.6370356 3.8388932 -9.6370356 3.8388932 -11.5625 6.0625 C-12.8825 5.4025 -14.2025 4.7425 -15.5625 4.0625 C-15.5625 3.4025 -15.5625 2.7425 -15.5625 2.0625 C-14.70785156 2.00191406 -13.85320313 1.94132813 -12.97265625 1.87890625 C-11.31556641 1.75322266 -11.31556641 1.75322266 -9.625 1.625 C-8.52285156 1.54378906 -7.42070313 1.46257813 -6.28515625 1.37890625 C-3.25411285 1.02666161 -3.00301569 0.07324429 0 0 Z " fill="#56473A" transform="translate(44.5625,0.9375)"/>
<path d="M0 0 C1.2065625 0.0309375 1.2065625 0.0309375 2.4375 0.0625 C3.0625 2.4375 3.0625 2.4375 3.4375 5.0625 C2.7775 5.7225 2.1175 6.3825 1.4375 7.0625 C-0.6875 6.6875 -0.6875 6.6875 -2.5625 6.0625 C-2.94468767 4.40635343 -3.27645102 2.73792976 -3.5625 1.0625 C-2.5625 0.0625 -2.5625 0.0625 0 0 Z " fill="#2A5D6B" transform="translate(49.5625,24.9375)"/>
<path d="M0 0 C1.65 0.33 3.3 0.66 5 1 C5.33 1.99 5.66 2.98 6 4 C4.6875 6.1875 4.6875 6.1875 3 8 C2.34 8 1.68 8 1 8 C1 7.34 1 6.68 1 6 C0.01 6.33 -0.98 6.66 -2 7 C-2.33 6.01 -2.66 5.02 -3 4 C-2.01 3.67 -1.02 3.34 0 3 C0 2.01 0 1.02 0 0 Z " fill="#27261F" transform="translate(39,18)"/>
<path d="M0 0 C1.2065625 0.0309375 1.2065625 0.0309375 2.4375 0.0625 C3.0625 2.4375 3.0625 2.4375 3.4375 5.0625 C2.7775 5.7225 2.1175 6.3825 1.4375 7.0625 C-0.6875 6.6875 -0.6875 6.6875 -2.5625 6.0625 C-2.94468767 4.40635343 -3.27645102 2.73792976 -3.5625 1.0625 C-2.5625 0.0625 -2.5625 0.0625 0 0 Z " fill="#2D6272" transform="translate(49.5625,52.9375)"/>
<path d="M0 0 C2.0625 0.4375 2.0625 0.4375 4 1 C4.625 3.375 4.625 3.375 5 6 C4.34 6.66 3.68 7.32 3 8 C0.875 7.625 0.875 7.625 -1 7 C-1.04254356 5.00045254 -1.04080783 2.99958364 -1 1 C-0.67 0.67 -0.34 0.34 0 0 Z " fill="#357287" transform="translate(67,43)"/>
<path d="M0 0 C1.48873294 2.36445821 2.00636486 3.73904068 1.9375 6.5625 C0.69048797 9.80473127 -1.02935477 10.33354048 -4 12 C-5.32793606 14.06700655 -5.32793606 14.06700655 -6 16 C-6.99 15.67 -7.98 15.34 -9 15 C-8.60167969 14.50371094 -8.20335937 14.00742187 -7.79296875 13.49609375 C-4.40115025 9.14697367 -1.93684016 5.1649071 0 0 Z " fill="#463F34" transform="translate(49,12)"/>
<path d="M0 0 C0.99 0 1.98 0 3 0 C3 0.66 3 1.32 3 2 C4.0828125 1.7215625 4.0828125 1.7215625 5.1875 1.4375 C8.12826973 0.98004693 10.14103058 1.26483643 13 2 C13 2.66 13 3.32 13 4 C8.71 4 4.42 4 0 4 C0 2.68 0 1.36 0 0 Z " fill="#624C33" transform="translate(48,95)"/>
<path d="M0 0 C4.10899581 1.12795963 8.07561214 2.33510818 12 4 C9.65887549 5.44977894 8.4203071 6.04314411 5.640625 5.7578125 C4.45726562 5.44457031 4.45726562 5.44457031 3.25 5.125 C2.05117188 4.81949219 2.05117188 4.81949219 0.828125 4.5078125 C0.22484375 4.34023438 -0.3784375 4.17265625 -1 4 C-0.67 2.68 -0.34 1.36 0 0 Z " fill="#463D31" transform="translate(29,38)"/>
<path d="M0 0 C0.33 0.99 0.66 1.98 1 3 C3.00016466 4.20882096 3.00016466 4.20882096 5 5 C4.34 5.66 3.68 6.32 3 7 C0.875 6.625 0.875 6.625 -1 6 C-1.66 7.98 -2.32 9.96 -3 12 C-3.33 12 -3.66 12 -4 12 C-4.37096774 6.43548387 -4.37096774 6.43548387 -2.5625 4.3125 C-1.7890625 3.6628125 -1.7890625 3.6628125 -1 3 C-0.67 2.01 -0.34 1.02 0 0 Z " fill="#777C74" transform="translate(68,38)"/>
<path d="M0 0 C0.66 0 1.32 0 2 0 C1.814375 0.61875 1.62875 1.2375 1.4375 1.875 C0.76313824 4.04160178 0.76313824 4.04160178 2 6 C1.71887936 8.00800456 1.38932033 10.01014051 1 12 C0.01 11.67 -0.98 11.34 -2 11 C-1.67 9.35 -1.34 7.7 -1 6 C-1.66 5.67 -2.32 5.34 -3 5 C-1.625 2.5 -1.625 2.5 0 0 Z " fill="#27241E" transform="translate(28,28)"/>
<path d="M0 0 C-1 2 -2 4 -3 6 C-4.32 5.34 -5.64 4.68 -7 4 C-6.625 2.0625 -6.625 2.0625 -6 0 C-3.50907189 -1.24546405 -2.58919267 -0.7767578 0 0 Z " fill="#211F18" transform="translate(60,30)"/>
<path d="M0 0 C0.66 0 1.32 0 2 0 C3.25541557 3.76624671 2.37061958 5.37188934 1 9 C-0.65 8.67 -2.3 8.34 -4 8 C-4 7.34 -4 6.68 -4 6 C-2.68 6 -1.36 6 0 6 C-0.2784375 4.7934375 -0.2784375 4.7934375 -0.5625 3.5625 C-0.706875 2.716875 -0.85125 1.87125 -1 1 C-0.67 0.67 -0.34 0.34 0 0 Z " fill="#504639" transform="translate(63,40)"/>
<path d="M0 0 C1.98 0.495 1.98 0.495 4 1 C3.67 2.65 3.34 4.3 3 6 C1.68 5.67 0.36 5.34 -1 5 C-0.67 3.35 -0.34 1.7 0 0 Z " fill="#2D5F6F" transform="translate(48,42)"/>
<path d="M0 0 C1.98 0.495 1.98 0.495 4 1 C3.67 2.98 3.34 4.96 3 7 C2.01 7.33 1.02 7.66 0 8 C-1.43088528 5.13822943 -0.59991697 3.06624227 0 0 Z " fill="#4A3F32" transform="translate(53,66)"/>
<path d="M0 0 C2.04119788 1.61594832 4.04072937 3.2856382 6 5 C6 5.66 6 6.32 6 7 C4.35 6.67 2.7 6.34 1 6 C0.67 6.99 0.34 7.98 0 9 C0 6.03 0 3.06 0 0 Z " fill="#393027" transform="translate(54,49)"/>
<path d="M0 0 C0 2.31 0 4.62 0 7 C-1.65 7 -3.3 7 -5 7 C-5 4 -5 4 -3.0625 1.8125 C-1 0 -1 0 0 0 Z " fill="#11375C" transform="translate(79,89)"/>
<path d="M0 0 C0.66 0 1.32 0 2 0 C4.29648649 2.5614657 5 3.47967572 5 7 C3.68 7 2.36 7 1 7 C0.67 4.69 0.34 2.38 0 0 Z " fill="#113459" transform="translate(19,89)"/>
<path d="M0 0 C0.33 0 0.66 0 1 0 C1 4.62 1 9.24 1 14 C0.01 13.34 -0.98 12.68 -2 12 C-1.34 8.04 -0.68 4.08 0 0 Z " fill="#77745C" transform="translate(79,67)"/>
<path d="M0 0 C0.66 0 1.32 0 2 0 C2.33 0.99 2.66 1.98 3 3 C5.01508358 3.73323796 5.01508358 3.73323796 7 4 C7 4.66 7 5.32 7 6 C4.36 6 1.72 6 -1 6 C-0.67 4.02 -0.34 2.04 0 0 Z " fill="#2C2D27" transform="translate(55,60)"/>
<path d="M0 0 C1.98 0.495 1.98 0.495 4 1 C4 2.32 4 3.64 4 5 C2.35 5 0.7 5 -1 5 C-0.67 3.35 -0.34 1.7 0 0 Z " fill="#3B778D" transform="translate(58,35)"/>
<path d="M0 0 C1.32 0 2.64 0 4 0 C3.60196439 2.88575819 3.20990931 3.82189513 0.9375 5.75 C0.298125 6.1625 -0.34125 6.575 -1 7 C-0.67 4.69 -0.34 2.38 0 0 Z " fill="#0D345B" transform="translate(20,4)"/>
<path d="M0 0 C2.475 0.495 2.475 0.495 5 1 C4.67 2.32 4.34 3.64 4 5 C2.68 4.67 1.36 4.34 0 4 C0 2.68 0 1.36 0 0 Z " fill="#316578" transform="translate(47,67)"/>
<path d="M0 0 C0.66 0.99 1.32 1.98 2 3 C2.99 3.33 3.98 3.66 5 4 C5.33 3.01 5.66 2.02 6 1 C6.33 2.32 6.66 3.64 7 5 C4.6875 5.625 4.6875 5.625 2 6 C1.01 5.34 0.02 4.68 -1 4 C-0.67 2.68 -0.34 1.36 0 0 Z " fill="#2F3130" transform="translate(46,44)"/>
<path d="M0 0 C0.66 0 1.32 0 2 0 C2 0.99 2 1.98 2 3 C3.98 2.67 5.96 2.34 8 2 C8 2.66 8 3.32 8 4 C3.71 4 -0.58 4 -5 4 C-3.68 3.34 -2.36 2.68 -1 2 C-0.67 1.34 -0.34 0.68 0 0 Z " fill="#909589" transform="translate(72,93)"/>
<path d="M0 0 C1.98 0.495 1.98 0.495 4 1 C3.67 2.32 3.34 3.64 3 5 C1.68 4.67 0.36 4.34 -1 4 C-0.67 2.68 -0.34 1.36 0 0 Z " fill="#31677A" transform="translate(58,59)"/>
<path d="M0 0 C1.65 0 3.3 0 5 0 C5 1.98 5 3.96 5 6 C4.34 6 3.68 6 3 6 C0 2.53846154 0 2.53846154 0 0 Z " fill="#0C335A" transform="translate(74,4)"/>
<path d="M0 0 C4.455 0.99 4.455 0.99 9 2 C9 2.66 9 3.32 9 4 C6 4 3 4 0 4 C0 2.68 0 1.36 0 0 Z " fill="#191714" transform="translate(44,60)"/>
<path d="M0 0 C3.3 0 6.6 0 10 0 C9.34 1.32 8.68 2.64 8 4 C7.34 3.34 6.68 2.68 6 2 C3.93125966 1.3574765 3.93125966 1.3574765 2 1 C2 1.66 2 2.32 2 3 C1.34 3 0.68 3 0 3 C0 2.01 0 1.02 0 0 Z " fill="#585D65" transform="translate(18,3)"/>
<path d="M0 0 C2.97 0 5.94 0 9 0 C8.34 0.66 7.68 1.32 7 2 C5.68 2 4.36 2 3 2 C2.67 2.66 2.34 3.32 2 4 C1.34 4 0.68 4 0 4 C0 2.68 0 1.36 0 0 Z " fill="#554235" transform="translate(48,1)"/>
<path d="M0 0 C0.66 0 1.32 0 2 0 C2 3.96 2 7.92 2 12 C1.67 12 1.34 12 1 12 C0.855625 10.906875 0.71125 9.81375 0.5625 8.6875 C0.11711896 5.06877013 0.11711896 5.06877013 -1 2 C-0.67 1.34 -0.34 0.68 0 0 Z " fill="#6A6460" transform="translate(78,19)"/>
<path d="M0 0 C1.32 0 2.64 0 4 0 C3.67 1.65 3.34 3.3 3 5 C2.01 4.67 1.02 4.34 0 4 C0 2.68 0 1.36 0 0 Z " fill="#2E6375" transform="translate(37,59)"/>
<path d="M0 0 C1.65 0 3.3 0 5 0 C4.67 1.32 4.34 2.64 4 4 C2.68 4.33 1.36 4.66 0 5 C0 3.35 0 1.7 0 0 Z " fill="#326A7C" transform="translate(48,55)"/>
<path d="M0 0 C0.99 0 1.98 0 3 0 C3 0.66 3 1.32 3 2 C4.29233607 3.37310707 5.62437146 4.71034824 7 6 C6.01 6 5.02 6 4 6 C4 5.34 4 4.68 4 4 C3.01 4.33 2.02 4.66 1 5 C0.67 3.35 0.34 1.7 0 0 Z " fill="#49382A" transform="translate(21,46)"/>
<path d="M0 0 C0.33 0.99 0.66 1.98 1 3 C-0.8125 5.5 -0.8125 5.5 -3 8 C-3.66 8.99 -4.32 9.98 -5 11 C-5.39169887 8.33644766 -5.40564529 6.60775627 -3.88671875 4.33203125 C-2.63610683 2.8489112 -1.32135486 1.42045648 0 0 Z " fill="#484E54" transform="translate(24,5)"/>
<path d="M0 0 C-1.32 1.32 -2.64 2.64 -4 4 C-5.32 3.34 -6.64 2.68 -8 2 C-8 1.34 -8 0.68 -8 0 C-2.25 -1.125 -2.25 -1.125 0 0 Z " fill="#4E4A4F" transform="translate(37,3)"/>
<path d="M0 0 C0.66 0.33 1.32 0.66 2 1 C1.67 2.65 1.34 4.3 1 6 C0.01 6 -0.98 6 -2 6 C-1.34 4.02 -0.68 2.04 0 0 Z " fill="#336878" transform="translate(51,25)"/>
<path d="M0 0 C2.08954032 4.17908064 2.16552619 4.80410573 1 9 C0.34 9 -0.32 9 -1 9 C-0.67 6.03 -0.34 3.06 0 0 Z " fill="#82745A" transform="translate(49,12)"/>
</svg>
